PathFileType	4	(X/Y/Z)	C:\Users\86182\Documents\cortex\Trimmed_M3_H5.trc
DataRate	CameraRate	NumFrames	NumMarkers	Units	OrigDataRate	OrigDataStartFrame	OrigNumFrames
100.00	100.00	       169	2	mm	100.00	361	       901
Frame#	Time	gripper			box			
		X1	Y1	Z1	X2	Y2	Z2	

361	3.600	268.90790	172.73541	288.63794	270.48822	170.15758	147.09097	
362	3.610	268.92145	172.72466	288.99896	270.44275	170.17159	147.48418	
363	3.620	268.90292	172.73882	289.35468	270.57986	170.08858	147.76283	
364	3.630	268.83362	172.78714	289.70831	270.80634	169.96315	147.97775	
365	3.640	268.74603	172.84674	290.04706	270.94891	169.89388	148.22215	
366	3.650	268.69446	172.88199	290.35156	270.88303	169.94987	148.56136	
367	3.660	268.70953	172.87376	290.61151	270.61771	170.12326	148.98769	
368	3.670	268.78427	172.82837	290.83102	270.29620	170.33052	149.41997	
369	3.680	268.87433	172.77667	291.02917	270.11765	170.45740	149.74588	
370	3.690	268.91321	172.76340	291.23322	270.21884	170.42493	149.88770	
371	3.700	268.86041	172.81538	291.45908	270.59375	170.23441	149.84816	
372	3.710	268.73523	172.91943	291.69824	271.09027	169.96974	149.71375	
373	3.720	268.58710	173.04109	291.92883	271.48343	169.75645	149.61375	
374	3.730	268.45142	173.15346	292.13293	271.58688	169.69916	149.65611	
375	3.740	268.34100	173.24442	292.30127	271.32568	169.84055	149.88470	
376	3.750	268.25537	173.31187	292.43152	270.75754	170.14920	150.26732	
377	3.760	268.18979	173.35880	292.52615	270.06580	170.52322	150.70154	
378	3.770	268.14020	173.38931	292.59009	269.49649	170.82564	151.05119	
379	3.780	268.10440	173.40703	292.62897	269.25342	170.94348	151.20496	
380	3.790	268.08087	173.41505	292.64886	269.43176	170.82526	151.11292	
381	3.800	268.06808	173.41612	292.65546	270.00293	170.48869	150.79431	
382	3.810	268.06454	173.41243	292.65363	270.82492	170.01459	150.33141	
383	3.820	268.06879	173.40546	292.64703	271.70148	169.51364	149.83630	
384	3.830	268.07953	173.39618	292.63818	272.47394	169.07460	149.39912	
385	3.840	268.09546	173.38528	292.62891	273.06659	168.73915	149.06259	
386	3.850	268.11502	173.37352	292.62030	273.46967	168.51170	148.83202	
387	3.860	268.13620	173.36191	292.61334	273.70901	168.37700	148.69316	
388	3.870	268.15668	173.35156	292.60867	273.82468	168.31227	148.62439	
389	3.880	268.17429	173.34348	292.60657	273.85736	168.29427	148.60347	
390	3.890	268.18729	173.33797	292.60657	273.84134	168.30287	148.61101	
391	3.900	268.19440	173.33455	292.60748	273.80182	168.32230	148.63158	
392	3.910	268.19427	173.33202	292.60699	273.75522	168.34102	148.65358	
393	3.920	268.18509	173.32884	292.60226	273.71091	168.35097	148.66840	
394	3.930	268.16418	173.32347	292.58960	273.67313	168.34689	148.66968	
395	3.940	268.12878	173.31454	292.56509	273.64316	168.32625	148.65312	
396	3.950	268.07715	173.30110	292.52536	273.62064	168.28969	148.61694	
397	3.960	268.01053	173.28297	292.46860	273.60406	168.24133	148.56219	
398	3.970	267.93448	173.26065	292.39600	273.59174	168.18736	148.49216	
399	3.980	267.85760	173.23520	292.31216	273.58292	168.13403	148.41202	
400	3.990	267.78836	173.20815	292.22470	273.57657	168.08733	148.32948	
401	4.000	267.73264	173.18179	292.14270	273.56879	168.05322	148.25543	
402	4.010	267.69321	173.15924	292.07513	273.54883	168.03864	148.20381	
403	4.020	267.66980	173.14349	292.02887	273.49460	168.05414	148.19164	
404	4.030	267.65988	173.13615	292.00662	273.37112	168.11626	148.23915	
405	4.040	267.65964	173.13678	292.00635	273.13419	168.24680	148.36916	
406	4.050	267.66498	173.14282	292.02216	272.73816	168.46898	148.60350	
407	4.060	267.67221	173.15039	292.04553	272.14996	168.79997	148.95576	
408	4.070	267.67828	173.15559	292.06805	271.37094	169.23846	149.41867	
409	4.080	267.68115	173.15599	292.08307	270.46973	169.74612	149.94658	
410	4.090	267.68039	173.15126	292.08731	269.60272	170.23541	150.44604	
411	4.100	267.67703	173.14296	292.08069	268.97229	170.59253	150.80112	
412	4.110	267.67264	173.13370	292.06598	268.73541	170.72867	150.92476	
413	4.120	267.66864	173.12593	292.04779	268.94321	170.61440	150.79164	
414	4.130	267.66586	173.12126	292.03098	269.52740	170.28740	150.44414	
415	4.140	267.66479	173.12032	292.01978	270.31165	169.84656	149.98521	
416	4.150	267.66592	173.12308	292.01678	271.07190	169.41791	149.54375	
417	4.160	267.66946	173.12912	292.02249	271.63196	169.10095	149.22038	
418	4.170	267.67529	173.13747	292.03500	271.91519	168.93950	149.05826	
419	4.180	267.68277	173.14641	292.05066	271.93829	168.92497	149.04675	
420	4.190	267.69028	173.15370	292.06482	271.79480	169.00516	149.13130	
421	4.200	267.69571	173.15715	292.07349	271.62823	169.09894	149.22888	
422	4.210	267.69745	173.15562	292.07468	271.57092	169.13097	149.26303	
423	4.220	267.69522	173.14960	292.06894	271.68613	169.06490	149.19737	
424	4.230	267.68970	173.14102	292.05902	271.94888	168.91455	149.04674	
425	4.240	267.68201	173.13239	292.04901	272.26205	168.73497	148.86749	
426	4.250	267.67383	173.12587	292.04263	272.50876	168.59261	148.72708	
427	4.260	267.66705	173.12273	292.04211	272.60266	168.53645	148.67525	
428	4.270	267.66287	173.12314	292.04742	272.49887	168.59184	148.73782	
429	4.280	267.66153	173.12627	292.05664	272.19037	168.76282	148.91866	
430	4.290	267.66266	173.13069	292.06699	271.71402	169.02898	149.19591	
431	4.300	267.66614	173.13499	292.07544	271.16537	169.33710	149.51376	
432	4.310	267.67200	173.13857	292.07947	270.69910	169.60065	149.78241	
433	4.320	267.67987	173.14131	292.07767	270.46771	169.73401	149.91368	
434	4.330	267.68842	173.14311	292.06976	270.53568	169.70076	149.87062	
435	4.340	267.69531	173.14362	292.05682	270.86920	169.51915	149.67345	
436	4.350	267.69830	173.14256	292.04092	271.37720	169.23907	149.37599	
437	4.360	267.69632	173.14017	292.02551	271.93896	168.92693	149.04900	
438	4.370	267.69003	173.13722	292.01447	272.44574	168.64284	148.75595	
439	4.380	267.68127	173.13483	292.01111	272.83917	168.41911	148.53093	
440	4.390	267.67206	173.13377	292.01685	273.10800	168.26208	148.38052	
441	4.400	267.66394	173.13405	292.03070	273.26779	168.16367	148.29552	
442	4.410	267.65765	173.13507	292.04932	273.34586	168.10985	148.25934	
443	4.420	267.65366	173.13603	292.06799	273.37073	168.08640	148.25417	
444	4.430	267.65234	173.13606	292.08234	273.36551	168.08209	148.26479	
445	4.440	267.65421	173.13449	292.08920	273.34613	168.08937	148.28021	
446	4.450	267.65979	173.13135	292.08740	273.32251	168.10335	148.29366	
447	4.460	267.66937	173.12738	292.07788	273.30051	168.12074	148.30176	
448	4.470	267.68253	173.12346	292.06287	273.28329	168.13879	148.30388	
449	4.480	267.69772	173.11996	292.04559	273.27188	168.15503	148.30139	
450	4.490	267.71246	173.11714	292.02966	273.26569	168.16766	148.29662	
451	4.500	267.72369	173.11555	292.01862	273.26331	168.17577	148.29167	
452	4.510	267.72845	173.11604	292.01517	273.26331	168.17918	148.28796	
453	4.520	267.72540	173.11919	292.02020	273.26523	168.17795	148.28577	
454	4.530	267.71539	173.12473	292.03256	273.26984	168.17216	148.28410	
455	4.540	267.70114	173.13138	292.04919	273.27875	168.16203	148.28123	
456	4.550	267.68579	173.13747	292.06613	273.29315	168.14821	148.27556	
457	4.560	267.67194	173.14159	292.07965	273.31296	168.13200	148.26630	
458	4.570	267.66122	173.14310	292.08734	273.33517	168.11595	148.25479	
459	4.580	267.65445	173.14207	292.08856	273.35150	168.10500	148.24580	
460	4.590	267.65198	173.13922	292.08411	273.34698	168.10751	148.24802	
461	4.600	267.65414	173.13579	292.07568	273.29974	168.13576	148.27412	
462	4.610	267.66119	173.13310	292.06555	273.18149	168.20544	148.34053	
463	4.620	267.67276	173.13203	292.05576	272.96060	168.33397	148.46565	
464	4.630	267.68768	173.13260	292.04810	272.60965	168.53619	148.66547	
465	4.640	267.70386	173.13423	292.04364	272.11844	168.81728	148.94614	
466	4.650	267.71902	173.13631	292.04266	271.51309	169.16187	149.29295	
467	4.660	267.73117	173.13847	292.04471	270.88184	169.51967	149.65541	
468	4.670	267.73892	173.14050	292.04889	270.38345	169.80081	149.94243	
469	4.680	267.74149	173.14203	292.05399	270.19016	169.90822	150.05505	
470	4.690	267.73911	173.14246	292.05878	270.37918	169.79869	149.94855	
471	4.700	267.73270	173.14130	292.06229	270.87585	169.51506	149.66528	
472	4.710	267.72351	173.13875	292.06415	271.51001	169.15399	149.30252	
473	4.720	267.71292	173.13562	292.06482	272.12393	168.80482	148.95071	
474	4.730	267.70248	173.13321	292.06537	272.62991	168.51721	148.66034	
475	4.740	267.69400	173.13274	292.06680	273.00186	168.30605	148.44658	
476	4.750	267.68896	173.13480	292.06943	273.24847	168.16655	148.30453	
477	4.760	267.68796	173.13910	292.07281	273.39282	168.08572	148.22102	
478	4.770	267.69037	173.14473	292.07605	273.45856	168.05019	148.18246	
479	4.780	267.69476	173.15047	292.07819	273.46198	168.05055	148.17940	
480	4.790	267.69946	173.15512	292.07870	273.40906	168.08336	148.20828	
481	4.800	267.70337	173.15781	292.07745	273.29572	168.15086	148.27145	
482	4.810	267.70642	173.15825	292.07440	273.11063	168.25948	148.37544	
483	4.820	267.70938	173.15666	292.06979	272.84113	168.41608	148.52762	
484	4.830	267.71280	173.15347	292.06415	272.48337	168.62225	148.73050	
485	4.840	267.71634	173.14911	292.05841	272.05716	168.86597	148.97328	
486	4.850	267.71890	173.14395	292.05377	271.60303	169.12335	149.23318	
487	4.860	267.71924	173.13873	292.05145	271.13962	169.38348	149.49988	
488	4.870	267.71661	173.13438	292.05234	270.64398	169.65974	149.78633	
489	4.880	267.71146	173.13173	292.05664	270.11951	169.95123	150.09010	
490	4.890	267.70526	173.13124	292.06354	269.66418	170.20364	150.35454	
491	4.900	267.70004	173.13293	292.07166	269.43008	170.33188	150.49194	
492	4.910	267.69730	173.13625	292.07892	269.51361	170.28212	150.44652	
493	4.920	267.69730	173.14017	292.08359	269.90054	170.06290	150.22586	
494	4.930	267.69928	173.14384	292.08490	270.50552	169.72249	149.87863	
495	4.940	267.70239	173.14684	292.08319	271.21915	169.32234	149.46779	
496	4.950	267.70593	173.14885	292.07947	271.92224	168.92908	149.06210	
497	4.960	267.70956	173.14970	292.07474	272.51660	168.59737	148.71841	
498	4.970	267.71307	173.14946	292.07001	272.95581	168.35251	148.46402	
499	4.980	267.71594	173.14861	292.06653	273.23688	168.19533	148.30125	
500	4.990	267.71750	173.14780	292.06531	273.37769	168.11511	148.22026	
501	5.000	267.71704	173.14749	292.06689	273.40247	168.09824	148.20729	
502	5.010	267.71429	173.14783	292.07098	273.33353	168.13269	148.24933	
503	5.020	267.70953	173.14888	292.07690	273.18851	168.20941	148.33583	
504	5.030	267.70380	173.15057	292.08350	272.98251	168.32083	148.45766	
505	5.040	267.69894	173.15271	292.08926	272.73428	168.45721	148.60345	
506	5.050	267.69675	173.15491	292.09286	272.47577	168.60098	148.75424	
507	5.060	267.69812	173.15654	292.09326	272.26431	168.71977	148.87659	
508	5.070	267.70255	173.15706	292.09033	272.17468	168.77118	148.92747	
509	5.080	267.70883	173.15657	292.08478	272.24411	168.73380	148.88588	
510	5.090	267.71588	173.15581	292.07813	272.43274	168.62984	148.77522	
511	5.100	267.72266	173.15572	292.07202	272.66345	168.50250	148.64023	
512	5.110	267.72809	173.15680	292.06799	272.87848	168.38385	148.51456	
513	5.120	267.73120	173.15904	292.06714	273.05060	168.28871	148.41426	
514	5.130	267.73123	173.16211	292.06967	273.17258	168.22076	148.34364	
515	5.140	267.72794	173.16547	292.07513	273.24881	168.17743	148.30011	
516	5.150	267.72180	173.16852	292.08249	273.28922	168.15331	148.27763	
517	5.160	267.71411	173.17084	292.09039	273.30536	168.14246	148.26913	
518	5.170	267.70654	173.17215	292.09741	273.30771	168.13951	148.26819	
519	5.180	267.70068	173.17226	292.10217	273.30475	168.14020	148.26981	
520	5.190	267.69757	173.17107	292.10373	273.30164	168.14192	148.27101	
521	5.200	267.69714	173.16885	292.10223	273.29968	168.14413	148.27124	
522	5.210	267.69858	173.16612	292.09845	273.29532	168.14859	148.27267	
523	5.220	267.70117	173.16336	292.09338	273.28073	168.15919	148.28017	
524	5.230	267.70517	173.16133	292.08801	273.24490	168.18161	148.30029	
525	5.240	267.71121	173.16080	292.08350	273.17563	168.22240	148.34012	
526	5.250	267.71909	173.16165	292.08038	273.06195	168.28769	148.40594	
527	5.260	267.72726	173.16261	292.07840	272.89813	168.38078	148.50092	
528	5.270	267.73340	173.16254	292.07712	272.68985	168.49869	148.62163	
529	5.280	267.73584	173.16125	292.07645	272.46268	168.62711	148.75314	
